Simulation
nRows=31
nColumns=15
endheader
time  TH_x TH_y TH_z SC_y  SC_z  SC_x  AC_y  AC_z  AC_x  GH_y  GH_z  GH_yy  EL_x  PS_y
0.0  0.000000  0.000000  0.000000  -29.91085210336659  10.503631796340327  22.421977250894432  60.57077978930051  3.8251396363530894  3.9327144228247626  41.81680674357172  61.484913003623646  -43.96892403311397  21.188961442700315  120.000000
0.04052287581699346  0.000000  0.000000  0.000000  -30.027520639715615  10.574108398956296  22.663062700548274  61.14626662433032  3.7240290415708093  4.460876857690057  42.743228737217436  61.916172419891026  -45.49661071965581  23.382078630163363  120.000000
0.08104575163398692  0.000000  0.000000  0.000000  -30.278792330536188  10.54829091767155  22.63475455211889  61.533298768137925  3.6117809036991972  4.661661158631925  43.25164145706945  61.999095125092666  -46.81121313833901  25.30100519853293  120.000000
0.12156862745098038  0.000000  0.000000  0.000000  -30.45613559089564  10.41011503251456  22.39916432030277  61.75746768029785  3.587792612059455  4.663283685051266  43.419385577954664  61.801968780496054  -47.90535437582094  26.878225719843456  120.000000
0.16209150326797384  0.000000  0.000000  0.000000  -30.543106000706423  10.19595622015167  22.01537868308544  61.89021659315666  3.655000505386285  4.573850504073161  43.39746870617509  61.430276858973485  -48.79830236886763  28.131151010940343  120.000000
0.2026143790849673  0.000000  0.000000  0.000000  -30.53637827492176  9.951684091041553  21.545868710532154  61.9690340518235  3.7982447991553188  4.468037348144117  43.299557635916365  60.98558779087286  -49.50494205681614  29.08519445680629  120.000000
0.24313725490196075  0.000000  0.000000  0.000000  -30.484396245580427  9.72417995987465  21.050506446528196  62.017857283747325  3.9868864962564756  4.392223371520026  43.212330492222904  60.54927589414544  -50.04803154676203  29.77266892079384  120.000000
0.28366013071895424  0.000000  0.000000  0.000000  -30.425511541937716  9.537606104828567  20.57034740882005  62.04756254771743  4.198701350408216  4.360408643798604  43.16884465211796  60.176440482141984  -50.438961363616734  30.225467952066403  120.000000
0.32418300653594767  0.000000  0.000000  0.000000  -30.376101814239195  9.404243087639903  20.131580176144556  62.05779873847445  4.417865493093122  4.372711398848137  43.17256485428396  59.894326596581664  -50.686128192703244  30.464654243269507  120.000000
0.3647058823529411  0.000000  0.000000  0.000000  -30.339828266707215  9.32543412440092  19.747756192778272  62.04968722130361  4.634301991637305  4.423240790231953  43.21115903642667  59.7114156833452  -50.79308612127657  30.507710896759825  120.000000
0.4052287581699346  0.000000  0.000000  0.000000  -30.312060293542373  9.296128330072275  19.424123179691836  62.02326061697414  4.843232635062516  4.504123261572419  43.268125549364015  59.62445839628722  -50.75981388082215  30.372385705179713  120.000000
0.4457516339869281  0.000000  0.000000  0.000000  -30.288809090266728  9.310173181477907  19.16285488884956  61.98096051858106  5.042732394279136  4.609292585442171  43.32732246826808  59.62457311897641  -50.58525989430013  30.07502549029406  120.000000
0.4862745098039215  0.000000  0.000000  0.000000  -30.268571195909125  9.360791072812932  18.964829498791243  61.92580013176665  5.233264399126614  4.734311381367017  43.374797328591036  59.7021195850957  -50.26694357821007  29.63275483188325  120.000000
0.5267973856209149  0.000000  0.000000  0.000000  -30.253146955832342  9.44232842182173  18.83160413007223  61.86256576758486  5.416613110633654  4.876801744773627  43.39843858911536  59.84833969151006  -49.802667061158466  29.063396791473227  120.000000
0.5673202614379085  0.000000  0.000000  0.000000  -30.246454680795757  9.549999617920893  18.76524998243856  61.796554984606615  5.594695851566372  5.036348402701614  43.38873187754086  60.057015725431356  -49.19021352917963  28.38488443914801  120.000000
0.6078431372549019  0.000000  0.000000  0.000000  -30.25337482884782  9.68023888941482  18.76837030787538  61.73399244538041  5.769014940603479  5.2140523571834425  43.33850422650165  60.323790431659525  -48.42909269458006  27.61542201835628  120.000000
0.6483660130718953  0.000000  0.000000  0.000000  -30.278946237711978  9.830643891275916  18.843264353992424  61.68109877129368  5.939672949446292  5.412700385513041  43.24410394926896  60.646185604944854  -47.52023358585228  26.772695242626487  120.000000
0.6888888888888888  0.000000  0.000000  0.000000  -30.32758999375323  10.000263828863027  18.991405123242707  61.64436043763629  6.105316015439746  5.636496595286645  43.10561378284699  61.02263709554731  -46.467511062694435  25.87381390256516  120.000000
0.7294117647058822  0.000000  0.000000  0.000000  -30.402828777585217  10.189549206681118  19.212795203331538  61.629992239799556  6.263012751661853  5.891317925407366  42.92754431776542  61.45216772135311  -45.2772065745771  24.93488978027406  120.000000
0.7699346405228757  0.000000  0.000000  0.000000  -30.50731946661575  10.400292292976397  19.505837432461604  61.64418776744019  6.408957689030612  6.184303933028581  42.7185536171773  61.93356433794593  -43.95868988566704  23.971333481783777  120.000000
0.8104575163398692  0.000000  0.000000  0.000000  -30.64307801308686  10.63513655494635  19.867348088388795  61.69283500451749  6.53912091335623  6.5236311427917695  42.49107875247587  62.465040118121784  -42.523557479477596  22.998054506081136  120.000000
0.8509803921568626  0.000000  0.000000  0.000000  -30.81165826263777  10.897131365286347  20.29285713322373  61.7814973382153  6.650155618592669  6.917735132667785  42.2602549581663  63.04359609373953  -40.98595440419208  22.029808089169116  120.000000
0.8915032679738562  0.000000  0.000000  0.000000  -31.014117800252247  11.189036661018461  20.776810537401516  61.915076137586965  6.739972414449303  7.3746258368120285  42.04266243461993  63.6648001806062  -39.36241641508706  21.081144953075032  120.000000
0.9320261437908496  0.000000  0.000000  0.000000  -31.250921271264158  11.512731601538714  21.31275030244396  62.097188376187745  6.808361382981059  7.900760624717702  41.85483786233947  64.32223711463772  -37.67274406764133  20.16624200925966  120.000000
0.972549019607843  0.000000  0.000000  0.000000  -31.521942104848016  11.868353222770281  21.893442210433417  62.32955970712868  6.8573583090363766  8.499804402600006  41.711930938571435  65.00742781706666  -35.94085647264812  19.298535963946104  120.000000
1.0130718954248366  0.000000  0.000000  0.000000  -31.826389135826503  12.253738349548785  22.511043121932808  62.61100320045629  6.891428851485906  9.17144570473548  41.62656521064438  65.70955903905393  -34.19575041216018  18.49034386200955  120.000000
1.0535947712418299  0.000000  0.000000  0.000000  -32.162804353898835  12.663947512477451  23.15729636040942  62.937039104123215  6.917369369731175  9.910528703843893  41.608086708862515  66.41584332038985  -32.47165063324774  17.752829287054176  120.000000
1.0941176470588234  0.000000  0.000000  0.000000  -32.529042644092506  13.09119207197284  23.823899334883954  63.299712106209164  6.943233225112051  10.706925536887614  41.66253168392421  67.11185445271707  -30.807040711942808  17.096514927855118  120.000000
1.134640522875817  0.000000  0.000000  0.000000  -32.9211954111323  13.525591889324085  24.502556541001237  63.68825246696944  6.977051270197434  11.54593544765918  41.79278663965911  67.78229838537385  -29.242740569691716  16.53146454151376  120.000000
1.1751633986928103  0.000000  0.000000  0.000000  -33.33337948578035  13.955262713761309  25.185113983656898  64.09018195871994  7.026476248437453  12.409504484805348  41.99881010245124  68.41108913296284  -27.81893037760504  16.067555167685803  120.000000
1.2156862745098038  0.000000  0.000000  0.000000  -33.75860915139759  14.36681729330556  25.863890738619133  64.49274633395522  7.0979139436555485  13.277300848537156  42.277767732443806  68.98304820407813  -26.57226190689345  15.714628473354107  120.000000
